<svg width="151" height="151" viewBox="0 0 151 151" fill="none" xmlns="http://www.w3.org/2000/svg">
<path d="M125.223 2.09009H25.0847C12.3872 2.09009 2.09375 12.3835 2.09375 25.081V125.219C2.09375 137.917 12.3872 148.21 25.0847 148.21H125.223C137.92 148.21 148.214 137.917 148.214 125.219V25.081C148.214 12.3835 137.92 2.09009 125.223 2.09009Z" fill="url(#paint0_radial_187_2737)"/>
<path d="M125.223 1.04517C138.497 1.04517 149.259 11.8066 149.259 25.0813V125.219C149.259 138.494 138.497 149.255 125.223 149.255H25.085C11.8103 149.255 1.04883 138.494 1.04883 125.219V25.0813C1.04883 11.8066 11.8103 1.04517 25.085 1.04517H125.223Z" stroke="url(#paint1_linear_187_2737)" stroke-opacity="0.6" stroke-width="2.09"/>
<path d="M125.223 1.04517C138.497 1.04517 149.259 11.8066 149.259 25.0813V125.219C149.259 138.494 138.497 149.255 125.223 149.255H25.085C11.8103 149.255 1.04883 138.494 1.04883 125.219V25.0813C1.04883 11.8066 11.8103 1.04517 25.085 1.04517H125.223Z" stroke="url(#paint2_linear_187_2737)" stroke-opacity="0.8" stroke-width="2.09"/>
<path d="M122.128 108.464C122.179 108.137 122.172 107.88 122.007 107.603C121.306 106.413 120.631 105.208 119.951 104.006C119.223 102.72 118.504 101.43 117.773 100.145C116.606 98.0929 115.432 96.0441 114.265 93.9917C113.146 92.0237 112.033 90.0522 110.914 88.0824C110.207 86.8401 109.495 85.6013 108.789 84.359C108.042 83.0464 107.302 81.7303 106.557 80.4177C105.826 79.1332 105.089 77.8522 104.36 76.5677C103.495 75.046 102.638 73.5191 101.771 71.9974C101.049 70.7269 100.313 69.4635 99.5921 68.1931C98.3338 65.9703 97.0877 63.7422 95.8276 61.5194C94.9647 59.9977 94.0825 58.4848 93.216 56.9649C92.2301 55.2341 91.2565 53.498 90.2723 51.7654C88.6782 48.9575 87.0789 46.1531 85.4849 43.3451C84.1615 41.0134 82.8452 38.6764 81.5218 36.3446C80.1897 33.9988 78.8505 31.6565 77.513 29.3125C77.1721 28.715 76.8311 28.1176 76.4937 27.5254C76.3144 27.5254 76.1598 27.5254 76.035 27.5254C75.8188 27.9296 75.629 28.3021 75.4234 28.6641C74.2406 30.7446 73.0543 32.8233 71.8716 34.9037C70.7995 36.7892 69.7362 38.6799 68.6642 40.5636C67.1317 43.2573 65.5904 45.9475 64.0561 48.6412C62.6027 51.1961 61.1527 53.7528 59.7011 56.3077C58.3847 58.6254 57.0684 60.9448 55.745 63.259C55.6097 63.4945 55.6009 63.7001 55.7362 63.9355C56.5587 65.3711 57.3777 66.8085 58.1949 68.2458C59.0596 69.7675 59.9225 71.291 60.7854 72.8127C61.2283 73.5946 61.6659 74.3818 62.1194 75.1585C62.3513 75.5556 62.622 75.5468 62.8329 75.1743C63.9524 73.187 65.0737 71.2014 66.1984 69.2193C67.3092 67.2636 68.4287 65.3131 69.5376 63.3574C70.5447 61.5844 71.5394 59.8027 72.5447 58.0297C73.6853 56.0178 74.8294 54.0076 75.9752 51.9991C76.035 51.8955 76.1194 51.8076 76.1844 51.725C76.5095 51.7988 76.5939 52.0378 76.7116 52.2434C77.3303 53.3328 77.9454 54.424 78.564 55.5135C79.6993 57.5096 80.8382 59.504 81.9735 61.5019C82.68 62.7442 83.376 63.9935 84.0842 65.2358C85.086 66.993 86.0983 68.7466 87.0965 70.5055C88.2231 72.4876 89.3355 74.4785 90.4621 76.4605C91.8593 78.917 93.2723 81.3665 94.6695 83.823C95.789 85.7911 96.8874 87.7714 98.0069 89.7394C99.1651 91.7777 100.337 93.809 101.499 95.8455C101.582 95.9896 101.627 96.1548 101.72 96.3832C101.46 96.4166 101.279 96.4588 101.097 96.4588C98.2986 96.4588 95.5007 96.4605 92.7028 96.4429C92.2811 96.4412 92.0157 96.5888 91.8101 96.956C91.202 98.0507 90.5675 99.1314 89.9489 100.219C88.7819 102.271 87.6203 104.327 86.4515 106.38C86.1668 106.882 85.8645 107.374 85.5798 107.875C85.3637 108.253 85.506 108.49 85.9471 108.502C86.1071 108.506 86.2688 108.492 86.4287 108.492C98.1826 108.494 109.938 108.495 121.692 108.497C121.836 108.495 121.975 108.476 122.128 108.464ZM48.5939 100.291C48.6519 100.284 48.7099 100.279 48.7661 100.272C49.9014 102.22 50.9998 104.192 52.1176 106.151C53.2406 108.117 54.3619 110.086 55.4796 112.054C56.6062 114.037 57.7257 116.025 58.8522 118.007C59.9717 119.973 61.0965 121.936 62.2248 123.907C62.4076 123.907 62.5921 123.907 62.7591 123.907C62.8399 123.74 62.8962 123.607 62.9665 123.482C64.2898 121.149 65.6114 118.817 66.9383 116.487C68.4726 113.795 70.0139 111.106 71.5464 108.413C72.6905 106.403 73.8206 104.385 74.963 102.375C76.2318 100.14 77.506 97.9102 78.7784 95.6768C79.6923 94.0725 80.6097 92.4683 81.5201 90.8622C82.0034 90.01 82.4744 89.1525 82.9629 88.302C83.1334 88.0051 83.1229 87.7433 82.9506 87.4445C82.3162 86.3463 81.7064 85.234 81.0789 84.1305C79.8874 82.036 78.6905 79.9467 77.499 77.854C77.2213 77.3655 76.9559 76.87 76.673 76.3832C76.4304 75.965 76.1159 75.9721 75.8839 76.3832C75.3935 77.2495 74.8944 78.1105 74.4041 78.9768C73.2723 80.9747 72.1475 82.9778 71.0139 84.974C69.8962 86.942 68.7626 88.903 67.6466 90.8728C66.0227 93.7352 64.4076 96.6046 62.7854 99.4688C62.7257 99.5724 62.6343 99.6585 62.571 99.7359C62.2266 99.6954 62.158 99.4389 62.0438 99.2368C60.919 97.253 59.803 95.2656 58.6765 93.2836C57.8346 91.804 56.9788 90.3333 56.1369 88.8538C55.1932 87.1933 54.2617 85.524 53.3197 83.8617C52.2107 81.906 51.0965 79.952 49.9858 77.9981C49.6765 77.4533 49.3759 76.9033 49.0561 76.3639C48.8171 75.9597 48.5394 75.9633 48.2986 76.3586C48.165 76.5783 48.0508 76.8085 47.9225 77.0316C46.8715 78.8731 45.8188 80.7129 44.7696 82.5544C43.8171 84.2289 42.8698 85.9088 41.9172 87.5834C41.035 89.1332 40.1475 90.6777 39.2652 92.2258C38.39 93.7598 37.5201 95.2973 36.6466 96.8313C35.7802 98.353 34.912 99.8712 34.0473 101.395C33.0332 103.183 32.0244 104.974 31.0104 106.763C30.7274 107.26 30.4357 107.752 30.1562 108.233C30.3584 108.529 30.6255 108.497 30.8803 108.497C34.8838 108.497 38.8874 108.494 42.8909 108.494C43.9172 108.494 43.912 108.494 44.4216 107.587C45.7274 105.264 47.0403 102.944 48.3513 100.625C48.4234 100.507 48.5148 100.402 48.5939 100.291Z" fill="white"/>
<path d="M122.128 108.464C121.975 108.474 121.835 108.495 121.696 108.495C109.942 108.494 98.1862 108.492 86.4322 108.49C86.2723 108.49 86.1106 108.504 85.9507 108.501C85.5095 108.49 85.3689 108.251 85.5833 107.873C85.8698 107.372 86.1703 106.879 86.455 106.378C87.622 104.326 88.7855 102.27 89.9524 100.217C90.571 99.1279 91.2055 98.049 91.8136 96.9543C92.0174 96.587 92.2828 96.4394 92.7064 96.4412C95.5043 96.4588 98.3021 96.457 101.1 96.457C101.281 96.457 101.464 96.4131 101.724 96.3814C101.631 96.153 101.585 95.9878 101.502 95.8437C100.341 93.8072 99.1686 91.7759 98.0104 89.7376C96.8909 87.7696 95.7925 85.7893 94.673 83.8213C93.2758 81.3648 91.8645 78.9153 90.4656 76.4588C89.3373 74.4767 88.2266 72.4858 87.1 70.5038C86.1 68.7449 85.0877 66.993 84.0877 65.2341C83.3795 63.9917 82.6835 62.7442 81.977 61.5001C80.8417 59.5022 79.7028 57.5078 78.5675 55.5117C77.9489 54.4223 77.3338 53.3311 76.7152 52.2416C76.5992 52.036 76.513 51.7971 76.1879 51.7233C76.1246 51.8059 76.0385 51.8937 75.9788 51.9974C74.8329 54.0058 73.687 56.016 72.5482 58.0279C71.5429 59.8027 70.5482 61.5827 69.5412 63.3557C68.4322 65.3114 67.3109 67.2618 66.202 69.2175C65.0754 71.1996 63.9542 73.1852 62.8364 75.1725C62.6273 75.5451 62.3549 75.5538 62.1229 75.1567C61.6694 74.3801 61.2336 73.5929 60.789 72.8109C59.926 71.2892 59.0631 69.7658 58.1984 68.2441C57.3812 66.8067 56.564 65.3676 55.7397 63.9338C55.6044 63.6983 55.6132 63.4927 55.7485 63.2573C57.0719 60.9431 58.3865 58.6236 59.7046 56.3059C61.1563 53.751 62.6062 51.1944 64.0596 48.6395C65.5939 45.9457 67.1334 43.2555 68.6677 40.5618C69.7398 38.6764 70.803 36.7874 71.8751 34.902C73.0579 32.8215 74.2459 30.7428 75.4269 28.6623C75.6325 28.3003 75.8206 27.9296 76.0385 27.5237C76.1633 27.5237 76.318 27.5237 76.4972 27.5237C76.8347 28.1141 77.1756 28.7115 77.5166 29.3107C78.8522 31.6548 80.1914 33.9971 81.5253 36.3429C82.8505 38.6746 84.1651 41.0116 85.4884 43.3434C87.0825 46.1513 88.6818 48.9575 90.2758 51.7637C91.26 53.4962 92.2336 55.2323 93.2195 56.9631C94.086 58.4848 94.9665 59.996 95.8312 61.5177C97.0913 63.7387 98.3373 65.9685 99.5957 68.1914C100.316 69.4635 101.051 70.7269 101.775 71.9956C102.641 73.5173 103.499 75.0425 104.364 76.566C105.093 77.8504 105.831 79.1314 106.561 80.4159C107.307 81.7285 108.047 83.0446 108.792 84.3572C109.499 85.5995 110.211 86.8383 110.917 88.0806C112.035 90.0486 113.149 92.0219 114.269 93.9899C115.436 96.0423 116.611 98.0912 117.777 100.144C118.506 101.428 119.227 102.72 119.954 104.004C120.634 105.206 121.309 106.411 122.01 107.601C122.172 107.882 122.179 108.137 122.128 108.464Z" fill="white"/>
<path d="M48.5939 100.291C48.5148 100.402 48.4234 100.507 48.3549 100.627C47.042 102.946 45.7309 105.266 44.4251 107.589C43.9155 108.495 43.9208 108.495 42.8944 108.495C38.8909 108.495 34.8874 108.499 30.8838 108.499C30.6308 108.499 30.3619 108.529 30.1598 108.235C30.4392 107.754 30.7327 107.262 31.0139 106.764C32.028 104.976 33.0367 103.185 34.0508 101.396C34.9137 99.8747 35.7837 98.3547 36.6501 96.833C37.5236 95.2973 38.3935 93.7615 39.2687 92.2275C40.151 90.6795 41.0385 89.1332 41.9208 87.5851C42.8733 85.9105 43.8206 84.2307 44.7731 82.5561C45.8223 80.7146 46.8751 78.8749 47.926 77.0334C48.0526 76.8102 48.1686 76.58 48.3021 76.3604C48.5429 75.965 48.8206 75.9633 49.0596 76.3656C49.3795 76.9033 49.6782 77.4551 49.9893 77.9998C51.1 79.9538 52.2143 81.9077 53.3232 83.8634C54.2652 85.5257 55.1967 87.195 56.1404 88.8555C56.9805 90.3351 57.8382 91.8058 58.68 93.2853C59.8065 95.2674 60.9243 97.2547 62.0473 99.2386C62.1615 99.4407 62.2301 99.6972 62.5745 99.7376C62.6378 99.6603 62.7292 99.5742 62.789 99.4705C64.4111 96.6064 66.0262 93.7387 67.6501 90.8745C68.7679 88.9047 69.8997 86.9455 71.0174 84.9757C72.151 82.9796 73.2758 80.9764 74.4076 78.9785C74.8979 78.1123 75.3953 77.2513 75.8874 76.385C76.1194 75.9756 76.434 75.9685 76.6765 76.385C76.9594 76.87 77.2248 77.3672 77.5025 77.8557C78.6958 79.9485 79.8926 82.0378 81.0825 84.1323C81.7099 85.2358 82.3197 86.3481 82.9542 87.4463C83.1264 87.745 83.1352 88.0068 82.9665 88.3038C82.4796 89.1525 82.0086 90.0117 81.5236 90.864C80.6115 92.47 79.6958 94.0743 78.7819 95.6786C77.5095 97.9119 76.2354 100.142 74.9665 102.377C73.8241 104.387 72.6941 106.404 71.5499 108.414C70.0174 111.108 68.4761 113.797 66.9419 116.489C65.615 118.819 64.2916 121.152 62.97 123.484C62.8997 123.609 62.8434 123.744 62.7626 123.909C62.5956 123.909 62.4111 123.909 62.2283 123.909C61.1 121.936 59.9752 119.975 58.8557 118.009C57.7274 116.026 56.6097 114.039 55.4832 112.055C54.3654 110.086 53.2441 108.117 52.1211 106.153C51.0016 104.194 49.9049 102.222 48.7696 100.274C48.7099 100.279 48.6519 100.284 48.5939 100.291Z" fill="white"/>
<defs>
<radialGradient id="paint0_radial_187_2737" cx="0" cy="0" r="1" gradientTransform="matrix(272.569 -246.484 247.27 251.495 -74.8524 219.715)" gradientUnits="userSpaceOnUse">
<stop stop-color="#1B5DFC"/>
<stop offset="0.510442" stop-color="#1B5DFC"/>
<stop offset="0.813098" stop-color="#06246C"/>
<stop offset="0.853024" stop-color="#1B5DFC"/>
<stop offset="1" stop-color="#1B5DFC"/>
</radialGradient>
<linearGradient id="paint1_linear_187_2737" x1="6.58226" y1="2.09009" x2="57.2574" y2="47.7453" gradientUnits="userSpaceOnUse">
<stop stop-color="white"/>
<stop offset="1" stop-color="#1B5DFC"/>
</linearGradient>
<linearGradient id="paint2_linear_187_2737" x1="148.214" y1="141.428" x2="68.4913" y2="93.967" gradientUnits="userSpaceOnUse">
<stop stop-color="white"/>
<stop offset="1" stop-color="#1B5DFC"/>
</linearGradient>
</defs>
</svg>
