<?xml version="1.0" encoding="UTF-8"?>
<!DOCTYPE svg PUBLIC "-//W3C//DTD SVG 1.1//EN" "http://www.w3.org/Graphics/SVG/1.1/DTD/svg11.dtd">
<svg xmlns="http://www.w3.org/2000/svg" version="1.1" width="192px" height="192px" style="shape-rendering:geometricPrecision; text-rendering:geometricPrecision; image-rendering:optimizeQuality; fill-rule:evenodd; clip-rule:evenodd" xmlns:xlink="http://www.w3.org/1999/xlink">
<g><path style="opacity:0.994" fill="#10d28d" d="M 21.5,-0.5 C 70.8333,-0.5 120.167,-0.5 169.5,-0.5C 180.167,3.5 187.5,10.8333 191.5,21.5C 191.5,70.8333 191.5,120.167 191.5,169.5C 187.5,180.167 180.167,187.5 169.5,191.5C 120.167,191.5 70.8333,191.5 21.5,191.5C 10.8333,187.5 3.5,180.167 -0.5,169.5C -0.5,120.167 -0.5,70.8333 -0.5,21.5C 3.5,10.8333 10.8333,3.5 21.5,-0.5 Z"/></g>
<g><path style="opacity:1" fill="#FFFFFF" d="M 88.5,35.5 C 88.5,55.8333 88.5,76.1667 88.5,96.5C 93.5,96.5 98.5,96.5 103.5,96.5C 103.5,76.1667 103.5,55.8333 103.5,35.5C 104.497,55.9933 104.831,76.6599 104.5,97.5C 98.8333,97.5 93.1667,97.5 87.5,97.5C 87.1695,76.6599 87.5028,55.9933 88.5,35.5 Z"/></g>
<g><path style="opacity:1" fill="#FFFFFF" d="M 88.5,35.5 C 93.5,35.5 98.5,35.5 103.5,35.5C 103.5,55.8333 103.5,76.1667 103.5,96.5C 98.5,96.5 93.5,96.5 88.5,96.5C 88.5,76.1667 88.5,55.8333 88.5,35.5 Z"/></g>
<g><path style="opacity:1" fill="#FFFFFF" d="M 95.5,41.5 C 94.791,40.596 93.791,40.2627 92.5,40.5C 92.2627,41.791 92.596,42.791 93.5,43.5C 93.44,44.0431 93.1067,44.3764 92.5,44.5C 91.5481,42.9547 91.2148,41.288 91.5,39.5C 93.288,39.2148 94.9547,39.5481 96.5,40.5C 96.3764,41.1067 96.0431,41.44 95.5,41.5 Z"/></g>
<g><path style="opacity:1" fill="#FFFFFF" d="M 95.5,41.5 C 95.1667,42.5 94.5,43.1667 93.5,43.5C 92.596,42.791 92.2627,41.791 92.5,40.5C 93.791,40.2627 94.791,40.596 95.5,41.5 Z"/></g>
<g><path style="opacity:1" fill="#FFFFFF" d="M 98.5,43.5 C 99.6225,45.2884 99.7891,47.2884 99,49.5C 96.9835,51.684 94.8169,53.684 92.5,55.5C 91.3691,53.9255 91.2025,52.2588 92,50.5C 94.3722,48.2968 96.5389,45.9635 98.5,43.5 Z"/></g>
<g><path style="opacity:1" fill="#FFFFFF" d="M 110.5,50.5 C 115.833,50.5 121.167,50.5 126.5,50.5C 126.5,65.8333 126.5,81.1667 126.5,96.5C 121.167,96.5 115.833,96.5 110.5,96.5C 110.5,81.1667 110.5,65.8333 110.5,50.5 Z"/></g>
<g><path style="opacity:1" fill="#FFFFFF" d="M 121.5,92.5 C 121.5,80.1667 121.5,67.8333 121.5,55.5C 119.5,55.5 117.5,55.5 115.5,55.5C 115.5,67.8333 115.5,80.1667 115.5,92.5C 114.505,80.011 114.171,67.3443 114.5,54.5C 117.167,54.5 119.833,54.5 122.5,54.5C 122.829,67.3443 122.495,80.011 121.5,92.5 Z"/></g>
<g><path style="opacity:1" fill="#FFFFFF" d="M 121.5,92.5 C 119.5,92.5 117.5,92.5 115.5,92.5C 115.5,80.1667 115.5,67.8333 115.5,55.5C 117.5,55.5 119.5,55.5 121.5,55.5C 121.5,67.8333 121.5,80.1667 121.5,92.5 Z"/></g>
<g><path style="opacity:1" fill="#FFFFFF" d="M 97.5,55.5 C 98.6491,55.7911 99.3158,56.6244 99.5,58C 98.1338,61.5418 95.8005,64.3751 92.5,66.5C 91.3691,64.9255 91.2025,63.2588 92,61.5C 94.0396,59.6298 95.8729,57.6298 97.5,55.5 Z"/></g>
<g><path style="opacity:1" fill="#FFFFFF" d="M 65.5,64.5 C 70.5,64.5 75.5,64.5 80.5,64.5C 80.5,75.1667 80.5,85.8333 80.5,96.5C 75.5,96.5 70.5,96.5 65.5,96.5C 65.5,85.8333 65.5,75.1667 65.5,64.5 Z"/></g>
<g><path style="opacity:1" fill="#FFFFFF" d="M 65.5,64.5 C 70.6405,63.5119 75.9738,63.1786 81.5,63.5C 81.5,74.8333 81.5,86.1667 81.5,97.5C 75.9738,97.8214 70.6405,97.4881 65.5,96.5C 70.5,96.5 75.5,96.5 80.5,96.5C 80.5,85.8333 80.5,75.1667 80.5,64.5C 75.5,64.5 70.5,64.5 65.5,64.5 Z"/></g>
<g><path style="opacity:1" fill="#FFFFFF" d="M 97.5,66.5 C 98.6491,66.7911 99.3158,67.6244 99.5,69C 98.1338,72.5418 95.8005,75.3751 92.5,77.5C 91.3691,75.9255 91.2025,74.2588 92,72.5C 94.0396,70.6298 95.8729,68.6298 97.5,66.5 Z"/></g>
<g><path style="opacity:1" fill="#FFFFFF" d="M 32.5,69.5 C 35.6516,68.9586 38.1516,69.9586 40,72.5C 41.587,81.4828 42.9203,90.4828 44,99.5C 47.8591,107.234 52.6924,114.234 58.5,120.5C 59.5827,119.635 59.7494,118.635 59,117.5C 54.8978,110.959 51.0645,104.292 47.5,97.5C 48.8516,93.7459 51.5183,92.5792 55.5,94C 62.6109,104.111 70.7776,113.277 80,121.5C 81,123.167 82,124.833 83,126.5C 84.5425,135.104 84.8758,143.77 84,152.5C 76.253,153.482 68.4197,153.815 60.5,153.5C 60.6655,149.486 60.4988,145.486 60,141.5C 51.5604,132.105 43.7271,122.271 36.5,112C 34.5354,99.4025 32.8687,86.7358 31.5,74C 31.7728,72.4672 32.1062,70.9672 32.5,69.5 Z"/></g>
<g><path style="opacity:1" fill="#FFFFFF" d="M 153.5,69.5 C 157.58,69.0807 159.58,70.914 159.5,75C 157.733,86.4359 156.566,97.9359 156,109.5C 149.147,120.69 141.147,131.024 132,140.5C 131.501,144.821 131.334,149.154 131.5,153.5C 123.5,153.5 115.5,153.5 107.5,153.5C 107.654,147.141 107.321,140.808 106.5,134.5C 106.743,131.344 107.576,128.344 109,125.5C 118.854,115.643 128.021,105.143 136.5,94C 140.482,92.5792 143.148,93.7459 144.5,97.5C 141.185,104.128 137.351,110.461 133,116.5C 132.219,117.944 132.386,119.277 133.5,120.5C 139.065,113.718 143.899,106.384 148,98.5C 149.274,90.8904 150.274,83.2237 151,75.5C 151.236,73.1887 152.069,71.1887 153.5,69.5 Z"/></g>
<g><path style="opacity:1" fill="#FFFFFF" d="M 98.5,76.5 C 99.6225,78.2884 99.7891,80.2884 99,82.5C 96.9835,84.684 94.8169,86.684 92.5,88.5C 91.3691,86.9255 91.2025,85.2588 92,83.5C 94.3722,81.2968 96.5389,78.9635 98.5,76.5 Z"/></g>
<g><path style="opacity:1" fill="#FFFFFF" d="M 145.5,87.5 C 145.966,82.9705 145.966,78.6372 145.5,74.5C 145.783,73.7109 146.283,73.0442 147,72.5C 147.552,77.7254 147.052,82.7254 145.5,87.5 Z"/></g>
<g><path style="opacity:1" fill="#FFFFFF" d="M 44.5,74.5 C 45.5862,74.62 46.2528,75.2867 46.5,76.5C 47.4046,79.6183 48.0713,82.785 48.5,86C 48.6906,87.9729 48.024,89.4729 46.5,90.5C 45.5334,85.1982 44.8667,79.8648 44.5,74.5 Z"/></g>
<g><path style="opacity:1" fill="#FFFFFF" d="M 54.5,85.5 C 54.7148,87.1788 54.0481,88.1788 52.5,88.5C 51.6627,84.8293 51.1627,81.1626 51,77.5C 53.2281,79.6784 54.3947,82.3451 54.5,85.5 Z"/></g>
<g><path style="opacity:1" fill="#FFFFFF" d="M 140.5,78.5 C 141.043,78.56 141.376,78.8933 141.5,79.5C 140.577,82.4466 139.911,85.4466 139.5,88.5C 138.5,88.5 137.5,88.5 136.5,88.5C 136.862,84.7408 138.195,81.4075 140.5,78.5 Z"/></g>
<g><path style="opacity:1" fill="#FFFFFF" d="M 145.5,74.5 C 145.966,78.6372 145.966,82.9705 145.5,87.5C 145.271,91.0472 144.271,91.0472 142.5,87.5C 143.192,82.9645 144.192,78.6312 145.5,74.5 Z"/></g>
<g><path style="opacity:1" fill="#FFFFFF" d="M 54.5,85.5 C 55.4345,86.5676 55.7678,87.901 55.5,89.5C 54.209,89.7373 53.209,89.404 52.5,88.5C 54.0481,88.1788 54.7148,87.1788 54.5,85.5 Z"/></g>
<g><path style="opacity:1" fill="#FFFFFF" d="M 98.5,87.5 C 99.4511,88.9187 99.7845,90.5853 99.5,92.5C 98.0222,92.762 96.6888,92.4287 95.5,91.5C 96.5244,90.1482 97.5244,88.8149 98.5,87.5 Z"/></g>
</svg>
